<svg width="48" height="48" viewBox="0 0 48 48" fill="none" xmlns="http://www.w3.org/2000/svg">
<path fill-rule="evenodd" clip-rule="evenodd" d="M42 24C42 33.9412 33.9412 42 24 42C14.0589 42 6 33.9412 6 24C6 14.0589 14.0589 6 24 6C33.9412 6 42 14.0589 42 24ZM24 36C22.8954 36 22 35.1046 22 34V26H14C12.8954 26 12 25.1046 12 24C12 22.8954 12.8954 22 14 22H22V14C22 12.8954 22.8954 12 24 12C25.1046 12 26 12.8954 26 14V22H34C35.1046 22 36 22.8954 36 24C36 25.1046 35.1046 26 34 26H26V34C26 35.1046 25.1046 36 24 36Z" fill="#3BD671"/>
</svg>
