<svg width="65" height="64" viewBox="0 0 65 64" fill="none" xmlns="http://www.w3.org/2000/svg">
<path d="M47.9134 25.3868C48.6793 24.238 48.3689 22.6858 47.2201 21.9199C46.0713 21.154 44.5191 21.4644 43.7532 22.6132L47.9134 25.3868ZM37.7155 36.1765L35.6354 34.7898L35.6353 34.7899L37.7155 36.1765ZM33.1117 35.8899L35.3478 34.7718L35.3477 34.7716L33.1117 35.8899ZM31.8883 33.4435L29.6522 34.5615L29.6523 34.5617L31.8883 33.4435ZM27.2845 33.1568L29.3646 34.5436L29.3647 34.5435L27.2845 33.1568ZM17.0866 43.9466C16.3207 45.0954 16.6311 46.6476 17.7799 47.4134C18.9287 48.1793 20.4809 47.8689 21.2468 46.7201L17.0866 43.9466ZM43.7532 22.6132L35.6354 34.7898L39.7956 37.5633L47.9134 25.3868L43.7532 22.6132ZM35.6353 34.7899C35.6068 34.8325 35.5858 34.8438 35.5742 34.8493C35.5558 34.8581 35.5253 34.8662 35.4865 34.8637C35.4476 34.8613 35.4184 34.8495 35.4011 34.8385C35.3902 34.8316 35.3708 34.8177 35.3478 34.7718L30.8757 37.0079C32.6498 40.5561 37.5951 40.8643 39.7956 37.5632L35.6353 34.7899ZM35.3477 34.7716L34.1242 32.3252L29.6523 34.5617L30.8758 37.0081L35.3477 34.7716ZM34.1243 32.3254C32.3502 28.7772 27.4049 28.469 25.2044 31.7701L29.3647 34.5435C29.3932 34.5008 29.4142 34.4895 29.4258 34.484C29.4442 34.4752 29.4747 34.4672 29.5135 34.4696C29.5524 34.472 29.5816 34.4838 29.5989 34.4948C29.6098 34.5017 29.6292 34.5156 29.6522 34.5615L34.1243 32.3254ZM25.2044 31.77L17.0866 43.9466L21.2468 46.7201L29.3646 34.5436L25.2044 31.77ZM13.8333 10.5H51.1667V5.5H13.8333V10.5ZM51.1667 10.5C52.7315 10.5 54 11.7685 54 13.3333H59C59 9.0071 55.4929 5.5 51.1667 5.5V10.5ZM54 13.3333V50.6667H59V13.3333H54ZM54 50.6667C54 52.2315 52.7315 53.5 51.1667 53.5V58.5C55.4929 58.5 59 54.9929 59 50.6667H54ZM51.1667 53.5H13.8333V58.5H51.1667V53.5ZM13.8333 53.5C12.2685 53.5 11 52.2315 11 50.6667H6C6 54.9929 9.5071 58.5 13.8333 58.5V53.5ZM11 50.6667V13.3333H6V50.6667H11ZM11 13.3333C11 11.7685 12.2685 10.5 13.8333 10.5V5.5C9.5071 5.5 6 9.0071 6 13.3333H11Z" fill="white"/>
</svg>
