<svg width="48" height="48" viewBox="0 0 48 48" fill="none" xmlns="http://www.w3.org/2000/svg">
<path fill-rule="evenodd" clip-rule="evenodd" d="M24 42C33.9412 42 42 33.9412 42 24C42 14.0589 33.9412 6 24 6C14.0589 6 6 14.0589 6 24C6 33.9412 14.0589 42 24 42ZM33.5364 19.2804C34.2436 18.4318 34.129 17.1707 33.2804 16.4636C32.4318 15.7564 31.1706 15.8711 30.4636 16.7196L23.2676 25.3548C22.5742 26.1868 22.1844 26.6476 21.8732 26.9306L21.8612 26.9414L21.8484 26.9318C21.5128 26.678 21.083 26.2544 20.317 25.4886L17.4142 22.5858C16.6332 21.8048 15.3668 21.8048 14.5858 22.5858C13.8047 23.3668 13.8047 24.6332 14.5858 25.4142L17.4886 28.317L17.5702 28.3986H17.5702C18.2232 29.052 18.8514 29.6804 19.4359 30.1222C20.0906 30.6174 20.948 31.083 22.0468 31.033C23.1456 30.9832 23.9574 30.442 24.5646 29.8896C25.1068 29.3966 25.6754 28.7138 26.2666 28.0042L26.3406 27.9154L33.5364 19.2804Z" fill="#3BD671"/>
</svg>
