<svg width="20" height="20" viewBox="0 0 20 20" fill="none" xmlns="http://www.w3.org/2000/svg">
<path d="M12.5003 2.5H7.50033C5.65938 2.5 4.16699 3.99238 4.16699 5.83333V12.5" stroke="white"/>
<path d="M7.08301 9.58341C7.08301 8.59641 7.08362 7.89101 7.14497 7.34696C7.20535 6.8113 7.32015 6.48384 7.51352 6.23183C7.62436 6.08739 7.75365 5.9581 7.89809 5.84726C8.1501 5.65389 8.47759 5.53909 9.01326 5.47871C9.55726 5.41736 10.2627 5.41675 11.2497 5.41675C12.2367 5.41675 12.9421 5.41736 13.4861 5.47871C14.0218 5.53909 14.3493 5.65389 14.6013 5.84726C14.7457 5.9581 14.875 6.08739 14.9858 6.23183C15.1792 6.48384 15.294 6.8113 15.3544 7.34696C15.4158 7.89101 15.4163 8.59641 15.4163 9.58341V12.9167C15.4163 13.9037 15.4158 14.6092 15.3544 15.1532C15.294 15.6888 15.1792 16.0163 14.9858 16.2683C14.875 16.4127 14.7457 16.5421 14.6013 16.6529C14.3493 16.8462 14.0218 16.9611 13.4861 17.0215C12.9421 17.0828 12.2367 17.0834 11.2497 17.0834C10.2627 17.0834 9.55726 17.0828 9.01326 17.0215C8.47759 16.9611 8.1501 16.8462 7.89809 16.6529C7.75365 16.5421 7.62436 16.4127 7.51352 16.2683C7.32015 16.0163 7.20535 15.6888 7.14497 15.1532C7.08362 14.6092 7.08301 13.9037 7.08301 12.9167V9.58341Z" stroke="white"/>
</svg>
