<svg width="20" height="21" viewBox="0 0 20 21" fill="none" xmlns="http://www.w3.org/2000/svg">
<path fill-rule="evenodd" clip-rule="evenodd" d="M2.511 8.12591C2.5 8.57502 2.5 9.08492 2.5 9.6665V11.3332C2.5 13.6902 2.5 14.8687 3.23223 15.6009C3.96447 16.3332 5.14298 16.3332 7.5 16.3332H12.5C14.857 16.3332 16.0355 16.3332 16.7677 15.6009C17.5 14.8687 17.5 13.6902 17.5 11.3332V9.6665C17.5 9.08492 17.5 8.57502 17.489 8.12591L10.8094 11.8368C10.306 12.1164 9.694 12.1164 9.19058 11.8368L2.511 8.12591ZM2.70247 6.35793C2.77153 6.37527 2.8395 6.40181 2.9047 6.43804L10 10.3798L17.0953 6.43804C17.1605 6.40181 17.2285 6.37527 17.2975 6.35793C17.1892 5.96333 17.023 5.65393 16.7677 5.39874C16.0355 4.6665 14.857 4.6665 12.5 4.6665H7.5C5.14298 4.6665 3.96447 4.6665 3.23223 5.39874C2.97704 5.65393 2.81078 5.96333 2.70247 6.35793Z" fill="white"/>
</svg>
