<svg width="20" height="21" viewBox="0 0 20 21" fill="none" xmlns="http://www.w3.org/2000/svg">
<path fill-rule="evenodd" clip-rule="evenodd" d="M3.23223 5.39874C2.5 6.13097 2.5 7.30948 2.5 9.6665V11.3332C2.5 13.6902 2.5 14.8687 3.23223 15.6009C3.96447 16.3332 5.14297 16.3332 7.5 16.3332H12.5C14.857 16.3332 16.0355 16.3332 16.7677 15.6009C17.5 14.8687 17.5 13.6902 17.5 11.3332V9.6665C17.5 7.30948 17.5 6.13097 16.7677 5.39874C16.0355 4.6665 14.857 4.6665 12.5 4.6665H7.5C5.14297 4.6665 3.96447 4.6665 3.23223 5.39874ZM5.46225 7.30646C5.07931 7.05117 4.56192 7.15465 4.30663 7.53759C4.05133 7.92053 4.15481 8.43792 4.53775 8.69321L9.0755 11.7183C9.63533 12.0916 10.3647 12.0916 10.9245 11.7183L15.4623 8.69321C15.8452 8.43792 15.9487 7.92053 15.6934 7.53759C15.4381 7.15465 14.9207 7.05117 14.5377 7.30646L10 10.3317L5.46225 7.30646Z" fill="white"/>
</svg>
