<svg width="20" height="20" viewBox="0 0 20 20" fill="none" xmlns="http://www.w3.org/2000/svg">
<path d="M5.56657 2.76686L6.07763 2.2558C6.40307 1.93036 6.9307 1.93036 7.25614 2.2558L9.41097 4.41062C9.73639 4.73606 9.73639 5.26369 9.41097 5.58913L7.91729 7.08281C7.66822 7.33188 7.60647 7.71238 7.76399 8.02743C8.67464 9.84871 10.1514 11.3255 11.9726 12.2361C12.2877 12.3936 12.6682 12.3319 12.9173 12.0828L14.411 10.5891C14.7364 10.2637 15.2641 10.2637 15.5895 10.5891L17.7443 12.744C18.0697 13.0694 18.0697 13.597 17.7443 13.9225L17.2332 14.4335C15.4738 16.193 12.6883 16.391 10.6977 14.898L9.69072 14.1427C8.23775 13.053 6.94707 11.7624 5.85736 10.3094L5.1021 9.30238C3.60915 7.31179 3.80711 4.52632 5.56657 2.76686Z" fill="white"/>
</svg>
