<svg width="20" height="21" viewBox="0 0 20 21" fill="none" xmlns="http://www.w3.org/2000/svg">
<path fill-rule="evenodd" clip-rule="evenodd" d="M10.3315 15.3365C11.5673 14.6955 15.8332 12.1801 15.8332 7.99984C15.8332 4.77818 13.2215 2.1665 9.99984 2.1665C6.77818 2.1665 4.1665 4.77818 4.1665 7.99984C4.1665 12.1801 8.43234 14.6955 9.66817 15.3365C9.87884 15.4458 10.1208 15.4458 10.3315 15.3365ZM9.99984 10.4998C11.3806 10.4998 12.4998 9.38059 12.4998 7.99984C12.4998 6.61913 11.3806 5.49984 9.99984 5.49984C8.61909 5.49984 7.49984 6.61913 7.49984 7.99984C7.49984 9.38059 8.61909 10.4998 9.99984 10.4998Z" fill="white"/>
<path d="M15.0517 14.25C15.5637 14.6301 15.8332 15.0612 15.8332 15.5C15.8332 15.9388 15.5637 16.3699 15.0517 16.75C14.5397 17.1301 13.8033 17.4457 12.9165 17.6651C12.0298 17.8845 11.0238 18 9.99984 18C8.97584 18 7.96995 17.8845 7.08317 17.6651C6.1964 17.4457 5.46 17.1301 4.94802 16.75C4.43604 16.3699 4.1665 15.9388 4.1665 15.5C4.1665 15.0612 4.43604 14.6301 4.94802 14.25" stroke="white" stroke-width="2" stroke-linecap="round"/>
</svg>
