<svg width="65" height="64" viewBox="0 0 65 64" fill="none" xmlns="http://www.w3.org/2000/svg">
<path d="M55.6821 46.2117C56.6349 42.6557 56.7571 38.9285 56.0389 35.3179C55.3205 31.7072 53.7816 28.3104 51.5405 25.3897C49.2995 22.4691 46.4165 20.1033 43.1149 18.4751C39.8133 16.8469 36.1813 16 32.5 16C28.8187 16 25.1867 16.8469 21.8851 18.4751C18.5834 20.1033 15.7006 22.4691 13.4595 25.3897C11.2185 28.3104 9.67934 31.7072 8.96115 35.3179C8.24296 38.9285 8.36499 42.6557 9.31779 46.2117" stroke="white" stroke-width="5" stroke-linecap="round"/>
<path d="M34.5423 41.5528C35.8423 43.4443 34.9282 46.3301 32.5004 47.9984C30.073 49.6667 27.0512 49.4856 25.7513 47.5939C24.3659 45.5779 19.5835 34.2424 16.6794 27.2304C16.1325 25.9099 17.7476 24.8 18.7844 25.784C24.2892 31.0088 33.157 39.5368 34.5423 41.5528Z" stroke="white" stroke-width="5"/>
<path d="M32.5 16V21.3333" stroke="white" stroke-width="5" stroke-linecap="round"/>
<path d="M15.5293 23.0286L19.3005 26.8" stroke="white" stroke-width="3" stroke-linecap="round"/>
<path d="M49.4704 23.0286L45.6992 26.8" stroke="white" stroke-width="5" stroke-linecap="round"/>
<path d="M55.682 46.211L50.5303 44.8307" stroke="white" stroke-width="5" stroke-linecap="round"/>
<path d="M9.31738 46.211L14.469 44.8307" stroke="white" stroke-width="5" stroke-linecap="round"/>
</svg>
