<svg width="32" height="32" viewBox="0 0 32 32" fill="none" xmlns="http://www.w3.org/2000/svg">
<rect width="32" height="32" rx="16" fill="#256FFF"/>
<g clip-path="url(#clip0_230_14)">
<path d="M25.894 20.8053C25.8698 20.7531 25.8472 20.7098 25.8262 20.6751C25.4792 20.0502 24.8161 19.2831 23.8373 18.3736L23.8166 18.3528L23.8063 18.3426L23.7958 18.3321H23.7853C23.341 17.9087 23.0597 17.6239 22.9419 17.4781C22.7264 17.2004 22.6781 16.9193 22.7959 16.6345C22.8791 16.4193 23.1918 15.9649 23.7331 15.2706C24.0178 14.9026 24.2433 14.6077 24.4099 14.3855C25.611 12.7887 26.1317 11.7684 25.9719 11.324L25.9099 11.2202C25.8682 11.1577 25.7606 11.1005 25.5872 11.0483C25.4135 10.9963 25.1914 10.9877 24.9206 11.0223L21.9217 11.0431C21.8731 11.0258 21.8037 11.0275 21.7134 11.0483C21.6231 11.0692 21.5779 11.0796 21.5779 11.0796L21.5257 11.1057L21.4843 11.1371C21.4496 11.1578 21.4114 11.1942 21.3697 11.2463C21.3282 11.2982 21.2936 11.3591 21.2658 11.4285C20.9393 12.2685 20.5681 13.0495 20.1515 13.7714C19.8946 14.2019 19.6587 14.575 19.4433 14.8909C19.2281 15.2067 19.0476 15.4393 18.9019 15.5885C18.756 15.7377 18.6244 15.8573 18.5061 15.9477C18.3881 16.038 18.298 16.0762 18.2355 16.0623C18.173 16.0483 18.1141 16.0344 18.0583 16.0206C17.9612 15.9581 17.8831 15.873 17.8242 15.7655C17.765 15.6579 17.7252 15.5224 17.7044 15.3593C17.6836 15.196 17.6714 15.0556 17.6679 14.9376C17.6646 14.8196 17.6661 14.6529 17.6732 14.4377C17.6804 14.2224 17.6836 14.0767 17.6836 14.0003C17.6836 13.7365 17.6888 13.4501 17.6991 13.1412C17.7096 12.8323 17.7181 12.5875 17.7252 12.4072C17.7323 12.2267 17.7356 12.0357 17.7356 11.8344C17.7356 11.6331 17.7233 11.4752 17.6991 11.3606C17.6752 11.2461 17.6385 11.135 17.5901 11.0273C17.5414 10.9197 17.4701 10.8365 17.3766 10.7774C17.2829 10.7184 17.1664 10.6716 17.0278 10.6368C16.6598 10.5535 16.1912 10.5085 15.6219 10.5015C14.3307 10.4876 13.501 10.571 13.1331 10.7515C12.9873 10.8278 12.8554 10.932 12.7375 11.0638C12.6125 11.2166 12.595 11.2999 12.6853 11.3137C13.1019 11.3761 13.3968 11.5253 13.5703 11.7614L13.6329 11.8864C13.6816 11.9766 13.7301 12.1364 13.7788 12.3654C13.8273 12.5945 13.8586 12.8479 13.8724 13.1254C13.9071 13.6323 13.9071 14.0662 13.8724 14.4271C13.8377 14.7882 13.8048 15.0693 13.7735 15.2706C13.7422 15.4719 13.6953 15.6351 13.6329 15.76C13.5703 15.8849 13.5287 15.9613 13.5079 15.989C13.487 16.0167 13.4697 16.0342 13.4559 16.0411C13.3657 16.0757 13.2718 16.0933 13.1747 16.0933C13.0774 16.0933 12.9595 16.0446 12.8207 15.9474C12.6819 15.8501 12.5378 15.7166 12.3886 15.5465C12.2393 15.3763 12.0709 15.1386 11.8834 14.8331C11.6961 14.5277 11.5017 14.1668 11.3003 13.7502L11.1338 13.4482C11.0296 13.2538 10.8874 12.9709 10.7069 12.5996C10.5263 12.2281 10.3666 11.8688 10.2279 11.5217C10.1724 11.3759 10.089 11.2649 9.97799 11.1885L9.92587 11.1572C9.89122 11.1295 9.8356 11.1 9.7593 11.0687C9.68289 11.0373 9.60316 11.0149 9.51978 11.001L6.66657 11.0218C6.37501 11.0218 6.17718 11.0878 6.07302 11.2197L6.03133 11.2821C6.0105 11.3169 6 11.3724 6 11.4488C6 11.5252 6.02083 11.6189 6.06251 11.7299C6.47903 12.7088 6.93198 13.6529 7.42137 14.5623C7.91076 15.4717 8.33603 16.2043 8.69692 16.7593C9.05789 17.3148 9.42583 17.839 9.80073 18.3317C10.1756 18.8247 10.4238 19.1405 10.5452 19.2793C10.6668 19.4184 10.7623 19.5223 10.8317 19.5917L11.092 19.8416C11.2586 20.0082 11.5033 20.2078 11.8261 20.4403C12.149 20.673 12.5065 20.902 12.8987 21.1278C13.291 21.3533 13.7474 21.5372 14.2681 21.6795C14.7887 21.8219 15.2955 21.8791 15.7884 21.8515H16.986C17.2288 21.8305 17.4128 21.7542 17.5379 21.6224L17.5793 21.5702C17.6072 21.5287 17.6333 21.4644 17.6573 21.3777C17.6817 21.291 17.6938 21.1954 17.6938 21.0914C17.6867 20.7929 17.7094 20.5239 17.7614 20.2845C17.8133 20.0451 17.8724 19.8646 17.9386 19.743C18.0047 19.6215 18.0793 19.5191 18.1624 19.436C18.2456 19.3527 18.3049 19.3023 18.3397 19.2849C18.3743 19.2674 18.4019 19.2556 18.4227 19.2485C18.5893 19.193 18.7854 19.2467 19.0112 19.41C19.2369 19.5731 19.4486 19.7746 19.6465 20.014C19.8444 20.2536 20.0821 20.5225 20.3597 20.8209C20.6376 21.1195 20.8805 21.3414 21.0886 21.4874L21.2968 21.6124C21.4359 21.6957 21.6164 21.7721 21.8386 21.8415C22.0604 21.9109 22.2547 21.9283 22.4215 21.8936L25.0872 21.852C25.3509 21.852 25.556 21.8083 25.7015 21.7217C25.8474 21.6349 25.934 21.5393 25.9619 21.4354C25.9898 21.3313 25.9913 21.2132 25.9672 21.0811C25.9425 20.9494 25.9182 20.8573 25.894 20.8053Z" fill="white"/>
</g>
<defs>
<clipPath id="clip0_230_14">
<rect width="20" height="20" fill="white" transform="translate(6 6)"/>
</clipPath>
</defs>
</svg>
