<svg width="175" height="49" viewBox="0 0 175 49" fill="none" xmlns="http://www.w3.org/2000/svg">
<path d="M34.517 24V6.54545H38.2074V20.9574H45.6903V24H34.517ZM54.032 24.2557C52.6854 24.2557 51.5263 23.983 50.5547 23.4375C49.5888 22.8864 48.8445 22.108 48.3217 21.1023C47.799 20.0909 47.5376 18.8949 47.5376 17.5142C47.5376 16.1676 47.799 14.9858 48.3217 13.9688C48.8445 12.9517 49.5803 12.1591 50.5291 11.5909C51.4837 11.0227 52.603 10.7386 53.8871 10.7386C54.7507 10.7386 55.5547 10.8778 56.299 11.1562C57.049 11.429 57.7024 11.8409 58.2592 12.392C58.8217 12.9432 59.2592 13.6364 59.5717 14.4716C59.8842 15.3011 60.0405 16.2727 60.0405 17.3864V18.3835H48.9865V16.1335H56.6229C56.6229 15.6108 56.5092 15.1477 56.282 14.7443C56.0547 14.3409 55.7393 14.0256 55.3359 13.7983C54.9382 13.5653 54.4751 13.4489 53.9467 13.4489C53.3956 13.4489 52.907 13.5767 52.4808 13.8324C52.0604 14.0824 51.7308 14.4205 51.4922 14.8466C51.2536 15.267 51.1314 15.7358 51.1257 16.2528V18.392C51.1257 19.0398 51.245 19.5994 51.4837 20.071C51.728 20.5426 52.0717 20.9062 52.5149 21.1619C52.9581 21.4176 53.4837 21.5455 54.0916 21.5455C54.495 21.5455 54.8643 21.4886 55.1996 21.375C55.5348 21.2614 55.8217 21.0909 56.0604 20.8636C56.299 20.6364 56.4808 20.358 56.6058 20.0284L59.9638 20.25C59.7933 21.0568 59.4439 21.7614 58.9155 22.3636C58.3928 22.9602 57.7166 23.4261 56.8871 23.7614C56.0632 24.0909 55.1115 24.2557 54.032 24.2557ZM66.1428 24.2472C65.3075 24.2472 64.5632 24.1023 63.9098 23.8125C63.2564 23.517 62.7393 23.0824 62.3587 22.5085C61.9837 21.929 61.7962 21.2074 61.7962 20.3438C61.7962 19.6165 61.9297 19.0057 62.1967 18.5114C62.4638 18.017 62.8274 17.6193 63.2876 17.3182C63.7479 17.017 64.2706 16.7898 64.8558 16.6364C65.4467 16.483 66.0661 16.375 66.7138 16.3125C67.4751 16.233 68.0888 16.1591 68.5547 16.0909C69.0206 16.017 69.3587 15.9091 69.5689 15.767C69.7791 15.625 69.8842 15.4148 69.8842 15.1364V15.0852C69.8842 14.5455 69.7138 14.1278 69.3729 13.8324C69.0376 13.5369 68.5604 13.3892 67.9411 13.3892C67.2876 13.3892 66.7678 13.5341 66.3814 13.8239C65.995 14.108 65.7393 14.4659 65.6143 14.8977L62.2564 14.625C62.4268 13.8295 62.7621 13.142 63.2621 12.5625C63.7621 11.9773 64.407 11.5284 65.1967 11.2159C65.9922 10.8977 66.9126 10.7386 67.9581 10.7386C68.6854 10.7386 69.3814 10.8239 70.0462 10.9943C70.7166 11.1648 71.3104 11.429 71.8274 11.7869C72.3501 12.1449 72.7621 12.6051 73.0632 13.1676C73.3643 13.7244 73.5149 14.392 73.5149 15.1705V24H70.0717V22.1847H69.9695C69.7592 22.5938 69.478 22.9545 69.1257 23.267C68.7734 23.5739 68.3501 23.8153 67.8558 23.9915C67.3615 24.1619 66.7905 24.2472 66.1428 24.2472ZM67.1825 21.7415C67.7166 21.7415 68.1882 21.6364 68.5973 21.4261C69.0064 21.2102 69.3274 20.9205 69.5604 20.5568C69.7933 20.1932 69.9098 19.7812 69.9098 19.321V17.9318C69.7962 18.0057 69.6399 18.0739 69.4411 18.1364C69.2479 18.1932 69.0291 18.2472 68.7848 18.2983C68.5405 18.3437 68.2962 18.3864 68.0518 18.4261C67.8075 18.4602 67.5859 18.4915 67.3871 18.5199C66.9609 18.5824 66.5888 18.6818 66.2706 18.8182C65.9524 18.9545 65.7053 19.1392 65.5291 19.3722C65.353 19.5994 65.2649 19.8835 65.2649 20.2244C65.2649 20.7188 65.4439 21.0966 65.8018 21.358C66.1655 21.6136 66.6257 21.7415 67.1825 21.7415ZM81.1555 24.2131C80.1612 24.2131 79.2607 23.9574 78.4538 23.446C77.6527 22.929 77.0163 22.1705 76.5447 21.1705C76.0788 20.1648 75.8459 18.9318 75.8459 17.4716C75.8459 15.9716 76.0874 14.7244 76.5703 13.7301C77.0533 12.7301 77.6953 11.983 78.4964 11.4886C79.3033 10.9886 80.1868 10.7386 81.147 10.7386C81.88 10.7386 82.4908 10.8636 82.9794 11.1136C83.4737 11.358 83.8714 11.6648 84.1726 12.0341C84.4794 12.3977 84.7124 12.7557 84.8714 13.108H84.9822V6.54545H88.6044V24H85.0249V21.9034H84.8714C84.701 22.267 84.4595 22.6278 84.147 22.9858C83.8402 23.3381 83.4396 23.6307 82.9453 23.8636C82.4567 24.0966 81.8601 24.2131 81.1555 24.2131ZM82.3061 21.3239C82.8913 21.3239 83.3857 21.1648 83.7891 20.8466C84.1982 20.5227 84.5107 20.071 84.7266 19.4915C84.9482 18.9119 85.0589 18.233 85.0589 17.4545C85.0589 16.6761 84.951 16 84.7351 15.4261C84.5192 14.8523 84.2067 14.4091 83.7976 14.0966C83.3885 13.7841 82.8913 13.6278 82.3061 13.6278C81.7095 13.6278 81.2067 13.7898 80.7976 14.1136C80.3885 14.4375 80.0788 14.8864 79.8686 15.4602C79.6584 16.0341 79.5533 16.6989 79.5533 17.4545C79.5533 18.2159 79.6584 18.8892 79.8686 19.4744C80.0845 20.054 80.3942 20.5085 80.7976 20.8381C81.2067 21.1619 81.7095 21.3239 82.3061 21.3239Z" fill="white"/>
<path d="M101.126 11.5653C101.058 10.8778 100.766 10.3437 100.249 9.96307C99.7315 9.58239 99.0298 9.39204 98.1435 9.39204C97.5412 9.39204 97.0327 9.47727 96.6179 9.64773C96.2031 9.8125 95.8849 10.0426 95.6634 10.3381C95.4474 10.6335 95.3395 10.9688 95.3395 11.3438C95.3281 11.6562 95.3935 11.929 95.5355 12.1619C95.6832 12.3949 95.8849 12.5966 96.1406 12.767C96.3963 12.9318 96.6918 13.0767 97.027 13.2017C97.3622 13.321 97.7202 13.4233 98.1009 13.5085L99.669 13.8835C100.43 14.054 101.129 14.2812 101.766 14.5653C102.402 14.8494 102.953 15.1989 103.419 15.6136C103.885 16.0284 104.246 16.517 104.501 17.0795C104.763 17.642 104.896 18.2869 104.902 19.0142C104.896 20.0824 104.624 21.0085 104.084 21.7926C103.55 22.571 102.777 23.1761 101.766 23.608C100.76 24.0341 99.5469 24.2472 98.1264 24.2472C96.7173 24.2472 95.4901 24.0312 94.4446 23.5994C93.4048 23.1676 92.5923 22.5284 92.0071 21.6818C91.4276 20.8295 91.1236 19.7756 91.0952 18.5199H94.6662C94.706 19.1051 94.8736 19.5937 95.169 19.9858C95.4702 20.3722 95.8707 20.6648 96.3707 20.8636C96.8764 21.0568 97.4474 21.1534 98.0838 21.1534C98.7088 21.1534 99.2514 21.0625 99.7116 20.8807C100.178 20.6989 100.538 20.446 100.794 20.1222C101.05 19.7983 101.178 19.4261 101.178 19.0057C101.178 18.6136 101.061 18.2841 100.828 18.017C100.601 17.75 100.266 17.5227 99.8224 17.3352C99.3849 17.1477 98.848 16.9773 98.2116 16.8239L96.3111 16.3466C94.8395 15.9886 93.6776 15.429 92.8253 14.6676C91.973 13.9062 91.5497 12.8807 91.5554 11.5909C91.5497 10.5341 91.831 9.6108 92.3991 8.82102C92.973 8.03125 93.7599 7.41477 94.7599 6.97159C95.7599 6.52841 96.8963 6.30682 98.169 6.30682C99.4645 6.30682 100.595 6.52841 101.561 6.97159C102.533 7.41477 103.288 8.03125 103.828 8.82102C104.368 9.6108 104.646 10.5256 104.663 11.5653H101.126ZM113.282 24.2557C111.935 24.2557 110.776 23.983 109.805 23.4375C108.839 22.8864 108.094 22.108 107.572 21.1023C107.049 20.0909 106.788 18.8949 106.788 17.5142C106.788 16.1676 107.049 14.9858 107.572 13.9688C108.094 12.9517 108.83 12.1591 109.779 11.5909C110.734 11.0227 111.853 10.7386 113.137 10.7386C114.001 10.7386 114.805 10.8778 115.549 11.1562C116.299 11.429 116.952 11.8409 117.509 12.392C118.072 12.9432 118.509 13.6364 118.822 14.4716C119.134 15.3011 119.29 16.2727 119.29 17.3864V18.3835H108.237V16.1335H115.873C115.873 15.6108 115.759 15.1477 115.532 14.7443C115.305 14.3409 114.989 14.0256 114.586 13.7983C114.188 13.5653 113.725 13.4489 113.197 13.4489C112.646 13.4489 112.157 13.5767 111.731 13.8324C111.31 14.0824 110.981 14.4205 110.742 14.8466C110.504 15.267 110.381 15.7358 110.376 16.2528V18.392C110.376 19.0398 110.495 19.5994 110.734 20.071C110.978 20.5426 111.322 20.9062 111.765 21.1619C112.208 21.4176 112.734 21.5455 113.342 21.5455C113.745 21.5455 114.114 21.4886 114.45 21.375C114.785 21.2614 115.072 21.0909 115.31 20.8636C115.549 20.6364 115.731 20.358 115.856 20.0284L119.214 20.25C119.043 21.0568 118.694 21.7614 118.165 22.3636C117.643 22.9602 116.967 23.4261 116.137 23.7614C115.313 24.0909 114.362 24.2557 113.282 24.2557ZM125.29 16.4318V24H121.66V10.9091H125.12V13.2188H125.273C125.563 12.4574 126.049 11.8551 126.731 11.4119C127.413 10.9631 128.239 10.7386 129.211 10.7386C130.12 10.7386 130.913 10.9375 131.589 11.3352C132.265 11.733 132.79 12.3011 133.165 13.0398C133.54 13.7727 133.728 14.6477 133.728 15.6648V24H130.097V16.3125C130.103 15.5114 129.898 14.8864 129.484 14.4375C129.069 13.983 128.498 13.7557 127.771 13.7557C127.282 13.7557 126.85 13.8608 126.475 14.071C126.106 14.2812 125.816 14.5881 125.606 14.9915C125.401 15.3892 125.296 15.8693 125.29 16.4318ZM141.413 24.2131C140.419 24.2131 139.518 23.9574 138.712 23.446C137.911 22.929 137.274 22.1705 136.803 21.1705C136.337 20.1648 136.104 18.9318 136.104 17.4716C136.104 15.9716 136.345 14.7244 136.828 13.7301C137.311 12.7301 137.953 11.983 138.754 11.4886C139.561 10.9886 140.445 10.7386 141.405 10.7386C142.138 10.7386 142.749 10.8636 143.237 11.1136C143.732 11.358 144.129 11.6648 144.43 12.0341C144.737 12.3977 144.97 12.7557 145.129 13.108H145.24V6.54545H148.862V24H145.283V21.9034H145.129C144.959 22.267 144.717 22.6278 144.405 22.9858C144.098 23.3381 143.697 23.6307 143.203 23.8636C142.714 24.0966 142.118 24.2131 141.413 24.2131ZM142.564 21.3239C143.149 21.3239 143.643 21.1648 144.047 20.8466C144.456 20.5227 144.768 20.071 144.984 19.4915C145.206 18.9119 145.317 18.233 145.317 17.4545C145.317 16.6761 145.209 16 144.993 15.4261C144.777 14.8523 144.464 14.4091 144.055 14.0966C143.646 13.7841 143.149 13.6278 142.564 13.6278C141.967 13.6278 141.464 13.7898 141.055 14.1136C140.646 14.4375 140.337 14.8864 140.126 15.4602C139.916 16.0341 139.811 16.6989 139.811 17.4545C139.811 18.2159 139.916 18.8892 140.126 19.4744C140.342 20.054 140.652 20.5085 141.055 20.8381C141.464 21.1619 141.967 21.3239 142.564 21.3239ZM157.813 24.2557C156.467 24.2557 155.308 23.983 154.336 23.4375C153.37 22.8864 152.626 22.108 152.103 21.1023C151.58 20.0909 151.319 18.8949 151.319 17.5142C151.319 16.1676 151.58 14.9858 152.103 13.9688C152.626 12.9517 153.362 12.1591 154.31 11.5909C155.265 11.0227 156.384 10.7386 157.668 10.7386C158.532 10.7386 159.336 10.8778 160.08 11.1562C160.83 11.429 161.484 11.8409 162.04 12.392C162.603 12.9432 163.04 13.6364 163.353 14.4716C163.665 15.3011 163.822 16.2727 163.822 17.3864V18.3835H152.768V16.1335H160.404C160.404 15.6108 160.29 15.1477 160.063 14.7443C159.836 14.3409 159.521 14.0256 159.117 13.7983C158.719 13.5653 158.256 13.4489 157.728 13.4489C157.177 13.4489 156.688 13.5767 156.262 13.8324C155.842 14.0824 155.512 14.4205 155.273 14.8466C155.035 15.267 154.913 15.7358 154.907 16.2528V18.392C154.907 19.0398 155.026 19.5994 155.265 20.071C155.509 20.5426 155.853 20.9062 156.296 21.1619C156.739 21.4176 157.265 21.5455 157.873 21.5455C158.276 21.5455 158.646 21.4886 158.981 21.375C159.316 21.2614 159.603 21.0909 159.842 20.8636C160.08 20.6364 160.262 20.358 160.387 20.0284L163.745 20.25C163.575 21.0568 163.225 21.7614 162.697 22.3636C162.174 22.9602 161.498 23.4261 160.668 23.7614C159.844 24.0909 158.893 24.2557 157.813 24.2557ZM166.191 24V10.9091H169.711V13.1932H169.847C170.086 12.3807 170.487 11.767 171.049 11.3523C171.612 10.9318 172.259 10.7216 172.992 10.7216C173.174 10.7216 173.37 10.733 173.58 10.7557C173.79 10.7784 173.975 10.8097 174.134 10.8494V14.071C173.964 14.0199 173.728 13.9744 173.427 13.9347C173.126 13.8949 172.85 13.875 172.6 13.875C172.066 13.875 171.589 13.9915 171.168 14.2244C170.754 14.4517 170.424 14.7699 170.18 15.179C169.941 15.5881 169.822 16.0597 169.822 16.5938V24H166.191Z" fill="#3BD671"/>
<path opacity="0.7" d="M34.6506 45H33.358L37.0966 34.8182H38.3693L42.108 45H40.8153L37.7727 36.429H37.6932L34.6506 45ZM35.1278 41.0227H40.3381V42.1165H35.1278V41.0227ZM43.5348 47.8636V37.3636H44.6683V38.5767H44.8075C44.8937 38.4441 45.013 38.2751 45.1655 38.0696C45.3213 37.8608 45.5433 37.6752 45.8317 37.5128C46.1233 37.3471 46.5178 37.2642 47.0149 37.2642C47.6579 37.2642 48.2247 37.425 48.7152 37.7464C49.2057 38.0679 49.5885 38.5237 49.8636 39.1136C50.1387 39.7036 50.2763 40.3996 50.2763 41.2017C50.2763 42.0104 50.1387 42.7114 49.8636 43.3047C49.5885 43.8946 49.2074 44.352 48.7202 44.6768C48.233 44.9983 47.6712 45.1591 47.0348 45.1591C46.5443 45.1591 46.1515 45.0779 45.8565 44.9155C45.5616 44.7498 45.3345 44.5625 45.1754 44.3537C45.0163 44.1416 44.8937 43.9659 44.8075 43.8267H44.7081V47.8636H43.5348ZM44.6882 41.1818C44.6882 41.7585 44.7727 42.2673 44.9418 42.7081C45.1108 43.1456 45.3577 43.4886 45.6825 43.7372C46.0073 43.9825 46.4051 44.1051 46.8757 44.1051C47.3662 44.1051 47.7756 43.9759 48.1037 43.7173C48.4351 43.4555 48.6837 43.1042 48.8494 42.6634C49.0185 42.2192 49.103 41.7254 49.103 41.1818C49.103 40.6449 49.0201 40.161 48.8544 39.7301C48.692 39.2959 48.4451 38.9529 48.1136 38.701C47.7855 38.4458 47.3729 38.3182 46.8757 38.3182C46.3984 38.3182 45.9974 38.4392 45.6726 38.6811C45.3478 38.9197 45.1025 39.2545 44.9368 39.6854C44.7711 40.1129 44.6882 40.6117 44.6882 41.1818ZM52.0661 45V37.3636H53.2393V45H52.0661ZM52.6626 36.0909C52.4339 36.0909 52.2367 36.013 52.071 35.8572C51.9086 35.7015 51.8274 35.5142 51.8274 35.2955C51.8274 35.0767 51.9086 34.8894 52.071 34.7337C52.2367 34.5779 52.4339 34.5 52.6626 34.5C52.8913 34.5 53.0869 34.5779 53.2493 34.7337C53.415 34.8894 53.4979 35.0767 53.4979 35.2955C53.4979 35.5142 53.415 35.7015 53.2493 35.8572C53.0869 36.013 52.8913 36.0909 52.6626 36.0909ZM61.3343 45L58.5502 34.8182H59.8031L61.9309 43.1108H62.0304L64.198 34.8182H65.59L67.7576 43.1108H67.8571L69.9849 34.8182H71.2377L68.4537 45H67.1809L64.9338 36.8864H64.8542L62.6071 45H61.3343ZM73.7882 40.4062V45H72.6149V34.8182H73.7882V38.5568H73.8876C74.0666 38.1624 74.335 37.8492 74.693 37.6172C75.0543 37.3819 75.5349 37.2642 76.1348 37.2642C76.6551 37.2642 77.1109 37.3686 77.502 37.5774C77.8931 37.7829 78.1963 38.0994 78.4118 38.527C78.6305 38.9512 78.7399 39.4915 78.7399 40.1477V45H77.5666V40.2273C77.5666 39.6207 77.4092 39.1518 77.0943 38.8203C76.7827 38.4856 76.3502 38.3182 75.7967 38.3182C75.4122 38.3182 75.0675 38.3994 74.7626 38.5618C74.461 38.7242 74.2224 38.9612 74.0467 39.2727C73.8743 39.5843 73.7882 39.9621 73.7882 40.4062ZM83.1335 45.179C82.6496 45.179 82.2105 45.0878 81.8161 44.9055C81.4216 44.7199 81.1084 44.4531 80.8764 44.1051C80.6444 43.7538 80.5284 43.3295 80.5284 42.8324C80.5284 42.3949 80.6146 42.0402 80.7869 41.7685C80.9593 41.4934 81.1896 41.2779 81.478 41.1222C81.7663 40.9664 82.0845 40.8504 82.4325 40.7741C82.7839 40.6946 83.1368 40.6316 83.4915 40.5852C83.9555 40.5256 84.3317 40.4808 84.62 40.451C84.9117 40.4179 85.1238 40.3632 85.2564 40.2869C85.3923 40.2107 85.4602 40.0781 85.4602 39.8892V39.8494C85.4602 39.3589 85.326 38.9777 85.0575 38.706C84.7924 38.4342 84.3897 38.2983 83.8494 38.2983C83.2893 38.2983 82.8501 38.4209 82.532 38.6662C82.2138 38.9115 81.9901 39.1733 81.8608 39.4517L80.7472 39.054C80.946 38.59 81.2112 38.2287 81.5426 37.9702C81.8774 37.7083 82.242 37.526 82.6364 37.4233C83.0341 37.3172 83.4252 37.2642 83.8097 37.2642C84.0549 37.2642 84.3366 37.294 84.6548 37.3537C84.9763 37.41 85.2862 37.5277 85.5845 37.7067C85.8861 37.8857 86.1364 38.1558 86.3352 38.517C86.5341 38.8783 86.6335 39.3622 86.6335 39.9688V45H85.4602V43.9659H85.4006C85.321 44.1316 85.1884 44.3089 85.0028 44.4979C84.8172 44.6868 84.5703 44.8475 84.2621 44.9801C83.9538 45.1127 83.5777 45.179 83.1335 45.179ZM83.3125 44.125C83.7765 44.125 84.1676 44.0339 84.4858 43.8516C84.8073 43.6693 85.0492 43.4339 85.2116 43.1456C85.3774 42.8572 85.4602 42.554 85.4602 42.2358V41.1619C85.4105 41.2216 85.3011 41.2763 85.1321 41.326C84.9664 41.3724 84.7741 41.4138 84.5554 41.4503C84.34 41.4834 84.1295 41.5133 83.924 41.5398C83.7218 41.563 83.5578 41.5829 83.4318 41.5994C83.1269 41.6392 82.8419 41.7038 82.5767 41.7933C82.3149 41.8795 82.1027 42.0104 81.9403 42.1861C81.7813 42.3584 81.7017 42.5937 81.7017 42.892C81.7017 43.2997 81.8525 43.608 82.1541 43.8168C82.459 44.0223 82.8452 44.125 83.3125 44.125ZM92.0961 37.3636V38.358H88.1387V37.3636H92.0961ZM89.2921 35.5341H90.4654V42.8125C90.4654 43.1439 90.5134 43.3925 90.6096 43.5582C90.709 43.7206 90.8349 43.83 90.9874 43.8864C91.1432 43.9394 91.3072 43.9659 91.4796 43.9659C91.6088 43.9659 91.7149 43.9593 91.7978 43.946C91.8806 43.9295 91.9469 43.9162 91.9966 43.9062L92.2353 44.9602C92.1557 44.9901 92.0447 45.0199 91.9022 45.0497C91.7596 45.0829 91.579 45.0994 91.3603 45.0994C91.0288 45.0994 90.704 45.0282 90.3858 44.8857C90.071 44.7431 89.8091 44.526 89.6003 44.2344C89.3948 43.9427 89.2921 43.5748 89.2921 43.1307V35.5341ZM99.1333 39.0739L98.0794 39.3722C98.0131 39.1965 97.9153 39.0258 97.786 38.8601C97.6601 38.6911 97.4877 38.5518 97.269 38.4425C97.0502 38.3331 96.7702 38.2784 96.4288 38.2784C95.9615 38.2784 95.572 38.3861 95.2605 38.6016C94.9522 38.8137 94.7981 39.0838 94.7981 39.4119C94.7981 39.7036 94.9042 39.9339 95.1163 40.103C95.3284 40.272 95.6599 40.4129 96.1106 40.5256L97.2441 40.804C97.9269 40.9697 98.4357 41.2232 98.7704 41.5646C99.1052 41.9027 99.2725 42.3385 99.2725 42.8722C99.2725 43.3097 99.1466 43.7008 98.8947 44.0455C98.6461 44.3902 98.2981 44.6619 97.8507 44.8608C97.4032 45.0597 96.8829 45.1591 96.2896 45.1591C95.5107 45.1591 94.8661 44.9901 94.3556 44.652C93.8452 44.3139 93.5221 43.8201 93.3862 43.1705L94.4998 42.892C94.6059 43.303 94.8064 43.6113 95.1014 43.8168C95.3997 44.0223 95.7891 44.125 96.2697 44.125C96.8166 44.125 97.2508 44.009 97.5723 43.777C97.8971 43.5417 98.0595 43.2599 98.0595 42.9318C98.0595 42.6667 97.9667 42.4446 97.7811 42.2656C97.5955 42.0833 97.3104 41.9474 96.926 41.858L95.6532 41.5597C94.9539 41.3939 94.4402 41.1371 94.112 40.7891C93.7872 40.4377 93.6248 39.9986 93.6248 39.4716C93.6248 39.0407 93.7458 38.6596 93.9877 38.3281C94.233 37.9967 94.5661 37.7365 94.987 37.5476C95.4113 37.3587 95.8919 37.2642 96.4288 37.2642C97.1845 37.2642 97.7778 37.4299 98.2086 37.7614C98.6428 38.0928 98.9511 38.5303 99.1333 39.0739ZM103.286 45.179C102.802 45.179 102.363 45.0878 101.968 44.9055C101.574 44.7199 101.261 44.4531 101.029 44.1051C100.797 43.7538 100.681 43.3295 100.681 42.8324C100.681 42.3949 100.767 42.0402 100.939 41.7685C101.112 41.4934 101.342 41.2779 101.63 41.1222C101.919 40.9664 102.237 40.8504 102.585 40.7741C102.936 40.6946 103.289 40.6316 103.644 40.5852C104.108 40.5256 104.484 40.4808 104.772 40.451C105.064 40.4179 105.276 40.3632 105.409 40.2869C105.545 40.2107 105.613 40.0781 105.613 39.8892V39.8494C105.613 39.3589 105.478 38.9777 105.21 38.706C104.945 38.4342 104.542 38.2983 104.002 38.2983C103.442 38.2983 103.002 38.4209 102.684 38.6662C102.366 38.9115 102.142 39.1733 102.013 39.4517L100.9 39.054C101.098 38.59 101.364 38.2287 101.695 37.9702C102.03 37.7083 102.394 37.526 102.789 37.4233C103.186 37.3172 103.578 37.2642 103.962 37.2642C104.207 37.2642 104.489 37.294 104.807 37.3537C105.129 37.41 105.439 37.5277 105.737 37.7067C106.038 37.8857 106.289 38.1558 106.488 38.517C106.686 38.8783 106.786 39.3622 106.786 39.9688V45H105.613V43.9659H105.553C105.473 44.1316 105.341 44.3089 105.155 44.4979C104.97 44.6868 104.723 44.8475 104.414 44.9801C104.106 45.1127 103.73 45.179 103.286 45.179ZM103.465 44.125C103.929 44.125 104.32 44.0339 104.638 43.8516C104.96 43.6693 105.202 43.4339 105.364 43.1456C105.53 42.8572 105.613 42.554 105.613 42.2358V41.1619C105.563 41.2216 105.453 41.2763 105.284 41.326C105.119 41.3724 104.926 41.4138 104.708 41.4503C104.492 41.4834 104.282 41.5133 104.076 41.5398C103.874 41.563 103.71 41.5829 103.584 41.5994C103.279 41.6392 102.994 41.7038 102.729 41.7933C102.467 41.8795 102.255 42.0104 102.093 42.1861C101.934 42.3584 101.854 42.5937 101.854 42.892C101.854 43.2997 102.005 43.608 102.306 43.8168C102.611 44.0223 102.998 44.125 103.465 44.125ZM108.927 47.8636V37.3636H110.061V38.5767H110.2C110.286 38.4441 110.406 38.2751 110.558 38.0696C110.714 37.8608 110.936 37.6752 111.224 37.5128C111.516 37.3471 111.91 37.2642 112.407 37.2642C113.05 37.2642 113.617 37.425 114.108 37.7464C114.598 38.0679 114.981 38.5237 115.256 39.1136C115.531 39.7036 115.669 40.3996 115.669 41.2017C115.669 42.0104 115.531 42.7114 115.256 43.3047C114.981 43.8946 114.6 44.352 114.113 44.6768C113.626 44.9983 113.064 45.1591 112.427 45.1591C111.937 45.1591 111.544 45.0779 111.249 44.9155C110.954 44.7498 110.727 44.5625 110.568 44.3537C110.409 44.1416 110.286 43.9659 110.2 43.8267H110.101V47.8636H108.927ZM110.081 41.1818C110.081 41.7585 110.165 42.2673 110.334 42.7081C110.503 43.1456 110.75 43.4886 111.075 43.7372C111.4 43.9825 111.798 44.1051 112.268 44.1051C112.759 44.1051 113.168 43.9759 113.496 43.7173C113.828 43.4555 114.076 43.1042 114.242 42.6634C114.411 42.2192 114.496 41.7254 114.496 41.1818C114.496 40.6449 114.413 40.161 114.247 39.7301C114.085 39.2959 113.838 38.9529 113.506 38.701C113.178 38.4458 112.765 38.3182 112.268 38.3182C111.791 38.3182 111.39 38.4392 111.065 38.6811C110.74 38.9197 110.495 39.2545 110.329 39.6854C110.164 40.1129 110.081 40.6117 110.081 41.1818ZM117.459 47.8636V37.3636H118.592V38.5767H118.731C118.818 38.4441 118.937 38.2751 119.089 38.0696C119.245 37.8608 119.467 37.6752 119.756 37.5128C120.047 37.3471 120.442 37.2642 120.939 37.2642C121.582 37.2642 122.148 37.425 122.639 37.7464C123.13 38.0679 123.512 38.5237 123.787 39.1136C124.063 39.7036 124.2 40.3996 124.2 41.2017C124.2 42.0104 124.063 42.7114 123.787 43.3047C123.512 43.8946 123.131 44.352 122.644 44.6768C122.157 44.9983 121.595 45.1591 120.959 45.1591C120.468 45.1591 120.075 45.0779 119.78 44.9155C119.485 44.7498 119.258 44.5625 119.099 44.3537C118.94 44.1416 118.818 43.9659 118.731 43.8267H118.632V47.8636H117.459ZM118.612 41.1818C118.612 41.7585 118.697 42.2673 118.866 42.7081C119.035 43.1456 119.282 43.4886 119.606 43.7372C119.931 43.9825 120.329 44.1051 120.8 44.1051C121.29 44.1051 121.699 43.9759 122.028 43.7173C122.359 43.4555 122.608 43.1042 122.773 42.6634C122.942 42.2192 123.027 41.7254 123.027 41.1818C123.027 40.6449 122.944 40.161 122.778 39.7301C122.616 39.2959 122.369 38.9529 122.037 38.701C121.709 38.4458 121.297 38.3182 120.8 38.3182C120.322 38.3182 119.921 38.4392 119.596 38.6811C119.272 38.9197 119.026 39.2545 118.861 39.6854C118.695 40.1129 118.612 40.6117 118.612 41.1818Z" fill="white"/>
<g clip-path="url(#clip0_101_5)">
<path d="M21.3486 7.86079C21.3486 7.45735 21.6864 7.13037 22.1031 7.13037C22.1658 7.13037 22.2287 7.13801 22.2894 7.15306C23.6575 7.55608 24.6533 8.70357 24.8268 10.0778C24.9432 11.5232 25.0002 12.9798 25.0002 14.4296C25.0002 15.8793 24.9432 17.3359 24.8292 18.7787C24.6432 20.2681 23.5002 21.4629 22.0107 21.7719C21.7553 21.8248 21.5365 21.8377 21.2758 21.8598C20.9351 21.8885 20.5922 21.9154 20.2515 21.9396C20.0989 21.9505 20.1212 21.9618 20.1212 22.09V24.9686C20.1212 25.4664 19.7556 25.8816 19.2702 25.9764C19.1582 25.9983 19.0405 26.0027 18.927 25.989C18.6934 25.9609 18.475 25.8576 18.3068 25.6948L15.023 22.5176C14.7699 22.2694 14.4251 22.1279 14.0648 22.1241C12.9212 22.1105 12.3913 22.0965 11.5078 22.0398C11.1249 21.9995 10.835 21.6865 10.835 21.3136C10.835 21.1285 10.906 20.9595 11.0233 20.8308C11.2701 20.5596 12.2359 20.4786 12.5988 20.473C14.8344 20.4466 17.1164 20.3303 19.3794 20.1258C19.9147 20.057 20.4107 19.8151 20.787 19.4404C21.1684 19.0907 21.4129 18.6227 21.4756 18.1169C21.7594 14.325 21.3486 11.4547 21.3486 7.86079Z" fill="#3BD671"/>
<path d="M19.9478 7.35112C19.7504 5.76093 18.4565 4.50475 16.8148 4.31003H16.8081C14.5745 4.11424 12.3133 4.00342 10.0611 4.00342C7.80884 4.00342 5.54762 4.11424 3.31297 4.31003H3.30661C1.66448 4.50517 0.370194 5.76222 0.173911 7.35348C0.0567942 8.79226 0 10.2591 0 11.7051C0 13.1513 0.0567942 14.6179 0.170616 16.0569C0.371726 17.6465 1.66557 18.9014 3.30681 19.0961L3.31297 19.0963C3.81493 19.1424 4.32548 19.1828 4.8303 19.2172C4.85947 19.2208 4.88074 19.2446 4.88074 19.2726C4.88074 19.2728 4.88074 19.273 4.88074 19.2732V22.2419C4.88074 22.6564 5.13974 23.0303 5.5358 23.1878C5.66431 23.239 5.8027 23.266 5.94195 23.2664C6.22243 23.2664 6.49172 23.1581 6.68976 22.9659L9.9751 19.7862C10.2284 19.5378 10.5731 19.3963 10.9336 19.3925C12.8698 19.37 14.848 19.2696 16.8092 19.0919L16.8151 19.0925C18.4572 18.8974 19.7511 17.6412 19.9486 16.0512C20.0647 14.6103 20.1217 13.1541 20.1217 11.7049C20.1217 10.2557 20.0647 8.79268 19.9506 7.35028L19.9478 7.35112Z" fill="white"/>
<path d="M12.8179 14.6721C12.4517 14.6716 12.1546 14.3837 12.1546 14.0287C12.1546 13.8168 12.2625 13.6182 12.4429 13.4985L14.493 12.1406L12.4429 10.7827C12.262 10.6629 12.1537 10.4644 12.1537 10.2521C12.1537 9.89704 12.451 9.60913 12.8177 9.60913C12.9515 9.60913 13.0822 9.6482 13.1925 9.72143L16.0439 11.6102C16.2243 11.7301 16.3325 11.9287 16.3325 12.1408C16.3325 12.3529 16.2243 12.5515 16.0436 12.6714L13.1923 14.5598C13.0824 14.6328 12.9519 14.6721 12.8184 14.6721H12.8179ZM9.08983 16.5587C9.09007 16.5585 9.08983 16.5585 9.08963 16.5585C8.72317 16.5585 8.42581 16.2705 8.42581 15.9157C8.42581 15.8631 8.4326 15.8106 8.44575 15.7597L10.3964 8.20493C10.4703 7.91911 10.7359 7.71826 11.0405 7.71826C11.407 7.71826 11.7043 8.00617 11.7043 8.361C11.7043 8.41345 11.6975 8.46609 11.6844 8.51685L9.73414 16.0731C9.6598 16.3582 9.39424 16.5582 9.0903 16.5582L9.08983 16.5587ZM7.30561 14.6721C7.30584 14.6721 7.30561 14.6721 7.30561 14.6721C7.17228 14.6721 7.04158 14.6328 6.93169 14.5598L4.08036 12.6714C3.90009 12.5515 3.79199 12.3529 3.79199 12.1408C3.79199 11.9287 3.90009 11.7301 4.08079 11.6102L6.93215 9.72143C7.04224 9.6482 7.17295 9.60913 7.30671 9.60913C7.67337 9.60913 7.97076 9.89704 7.97076 10.2521C7.97076 10.4644 7.8624 10.6629 7.6815 10.7827L5.63148 12.1406L7.6815 13.4985C7.86197 13.6182 7.96986 13.8168 7.96986 14.0287C7.96986 14.3837 7.67271 14.6716 7.30627 14.6719L7.30561 14.6721Z" fill="#131A26"/>
</g>
<defs>
<clipPath id="clip0_101_5">
<rect width="25" height="22" fill="white" transform="translate(0 4)"/>
</clipPath>
</defs>
</svg>
